<?xml version="1.0" encoding="UTF-8"?>
<svg xmlns="http://www.w3.org/2000/svg" width="1600" height="1000" viewBox="0 0 1600 1000">
  <title>Kaizen Code Heat Map</title>
  <desc>Code quality heat map generated by Kaizen</desc>

  <defs>
    <style type="text/css">
      <![CDATA[
        .folder-rect {
          stroke: #1a1a1a;
          stroke-width: 2;
        }
        .folder-label {
          font-family: -apple-system, BlinkMacSystemFont, 'Segoe UI', Roboto, sans-serif;
          font-size: 12px;
          font-weight: 500;
          fill: white;
          text-shadow: 1px 1px 2px rgba(0,0,0,0.8);
          pointer-events: none;
        }
        .title-text {
          font-family: -apple-system, BlinkMacSystemFont, 'Segoe UI', Roboto, sans-serif;
          font-size: 24px;
          font-weight: bold;
          fill: #667eea;
        }
        .subtitle-text {
          font-family: -apple-system, BlinkMacSystemFont, 'Segoe UI', Roboto, sans-serif;
          font-size: 14px;
          fill: #999;
        }
      ]]>
    </style>
  </defs>

  <rect width="1600" height="1000" fill="#1a1a1a"/>

  <!-- Header -->
  <text x="800" y="30" class="title-text" text-anchor="middle">Kaizen Code Heat Map</text>
  <text x="800" y="55" class="subtitle-text" text-anchor="middle">Metric: Cyclomatic Complexity | Files: 14 | Functions: 92</text>

  <!-- Legend -->
  <text x="800" y="940" class="subtitle-text" text-anchor="middle">Color Scale</text>
  <rect x="650.00" y="950" width="7.00" height="20" fill="#22c55e" stroke="none"/>
  <rect x="656.00" y="950" width="7.00" height="20" fill="#2ec358" stroke="none"/>
  <rect x="662.00" y="950" width="7.00" height="20" fill="#3ac253" stroke="none"/>
  <rect x="668.00" y="950" width="7.00" height="20" fill="#46c14e" stroke="none"/>
  <rect x="674.00" y="950" width="7.00" height="20" fill="#52c049" stroke="none"/>
  <rect x="680.00" y="950" width="7.00" height="20" fill="#5ebf43" stroke="none"/>
  <rect x="686.00" y="950" width="7.00" height="20" fill="#6abe3e" stroke="none"/>
  <rect x="692.00" y="950" width="7.00" height="20" fill="#76bd39" stroke="none"/>
  <rect x="698.00" y="950" width="7.00" height="20" fill="#82bc34" stroke="none"/>
  <rect x="704.00" y="950" width="7.00" height="20" fill="#8fbb2f" stroke="none"/>
  <rect x="710.00" y="950" width="7.00" height="20" fill="#9bba29" stroke="none"/>
  <rect x="716.00" y="950" width="7.00" height="20" fill="#a7b924" stroke="none"/>
  <rect x="722.00" y="950" width="7.00" height="20" fill="#b3b71f" stroke="none"/>
  <rect x="728.00" y="950" width="7.00" height="20" fill="#bfb61a" stroke="none"/>
  <rect x="734.00" y="950" width="7.00" height="20" fill="#cbb515" stroke="none"/>
  <rect x="740.00" y="950" width="7.00" height="20" fill="#d7b40f" stroke="none"/>
  <rect x="746.00" y="950" width="7.00" height="20" fill="#e3b30a" stroke="none"/>
  <rect x="752.00" y="950" width="7.00" height="20" fill="#eaaf09" stroke="none"/>
  <rect x="758.00" y="950" width="7.00" height="20" fill="#eaa90d" stroke="none"/>
  <rect x="764.00" y="950" width="7.00" height="20" fill="#eaa210" stroke="none"/>
  <rect x="770.00" y="950" width="7.00" height="20" fill="#eb9c14" stroke="none"/>
  <rect x="776.00" y="950" width="7.00" height="20" fill="#eb9517" stroke="none"/>
  <rect x="782.00" y="950" width="7.00" height="20" fill="#eb8f1b" stroke="none"/>
  <rect x="788.00" y="950" width="7.00" height="20" fill="#eb881e" stroke="none"/>
  <rect x="794.00" y="950" width="7.00" height="20" fill="#ec8222" stroke="none"/>
  <rect x="800.00" y="950" width="7.00" height="20" fill="#ec7b26" stroke="none"/>
  <rect x="806.00" y="950" width="7.00" height="20" fill="#ec7429" stroke="none"/>
  <rect x="812.00" y="950" width="7.00" height="20" fill="#ed6e2d" stroke="none"/>
  <rect x="818.00" y="950" width="7.00" height="20" fill="#ed6730" stroke="none"/>
  <rect x="824.00" y="950" width="7.00" height="20" fill="#ed6134" stroke="none"/>
  <rect x="830.00" y="950" width="7.00" height="20" fill="#ed5a37" stroke="none"/>
  <rect x="836.00" y="950" width="7.00" height="20" fill="#ee543b" stroke="none"/>
  <rect x="842.00" y="950" width="7.00" height="20" fill="#ee4d3e" stroke="none"/>
  <rect x="848.00" y="950" width="7.00" height="20" fill="#ee4742" stroke="none"/>
  <rect x="854.00" y="950" width="7.00" height="20" fill="#ee4343" stroke="none"/>
  <rect x="860.00" y="950" width="7.00" height="20" fill="#ed4141" stroke="none"/>
  <rect x="866.00" y="950" width="7.00" height="20" fill="#ec3f3f" stroke="none"/>
  <rect x="872.00" y="950" width="7.00" height="20" fill="#ea3d3d" stroke="none"/>
  <rect x="878.00" y="950" width="7.00" height="20" fill="#e93b3b" stroke="none"/>
  <rect x="884.00" y="950" width="7.00" height="20" fill="#e83a3a" stroke="none"/>
  <rect x="890.00" y="950" width="7.00" height="20" fill="#e73838" stroke="none"/>
  <rect x="896.00" y="950" width="7.00" height="20" fill="#e63636" stroke="none"/>
  <rect x="902.00" y="950" width="7.00" height="20" fill="#e53434" stroke="none"/>
  <rect x="908.00" y="950" width="7.00" height="20" fill="#e43232" stroke="none"/>
  <rect x="914.00" y="950" width="7.00" height="20" fill="#e23030" stroke="none"/>
  <rect x="920.00" y="950" width="7.00" height="20" fill="#e12f2f" stroke="none"/>
  <rect x="926.00" y="950" width="7.00" height="20" fill="#e02d2d" stroke="none"/>
  <rect x="932.00" y="950" width="7.00" height="20" fill="#df2b2b" stroke="none"/>
  <rect x="938.00" y="950" width="7.00" height="20" fill="#de2929" stroke="none"/>
  <rect x="944.00" y="950" width="7.00" height="20" fill="#dd2727" stroke="none"/>
  <text x="650" y="985" class="subtitle-text" text-anchor="start">Low (Good)</text>
  <text x="800" y="985" class="subtitle-text" text-anchor="middle">Medium</text>
  <text x="950" y="985" class="subtitle-text" text-anchor="end">High (Needs Attention)</text>
  <!-- Treemap (offset by header) -->
  <g transform="translate(0, 80)">
    <rect class="folder-rect" x="0.00" y="0.00" width="852.14" height="375.79" fill="#ea3c3c">
      <title>pkg/visualization
Lines: 628
Score: 75.0/100</title>
    </rect>
    <text class="folder-label" x="5.00" y="20.00">pkg/visualization</text>
    <rect class="folder-rect" x="0.00" y="375.79" width="756.54" height="333.64" fill="#e33131">
      <title>pkg/analyzer
Lines: 495
Score: 87.5/100</title>
    </rect>
    <text class="folder-label" x="5.00" y="395.79">pkg/analyzer</text>
    <rect class="folder-rect" x="756.54" y="375.79" width="722.94" height="318.82" fill="#ee523c">
      <title>pkg/languages/golang
Lines: 452
Score: 62.5/100</title>
    </rect>
    <text class="folder-label" x="761.54" y="395.79">pkg/languages/golang</text>
    <rect class="folder-rect" x="0.00" y="709.43" width="538.73" height="237.58" fill="#ec7b26">
      <title>cmd/kaizen
Lines: 251
Score: 50.0/100</title>
    </rect>
    <text class="folder-label" x="5.00" y="729.43">cmd/kaizen</text>
    <rect class="folder-rect" x="538.73" y="709.43" width="449.83" height="198.38" fill="#dc2626">
      <title>pkg/churn
Lines: 175
Score: 100.0/100</title>
    </rect>
    <text class="folder-label" x="543.73" y="729.43">pkg/churn</text>
    <rect class="folder-rect" x="988.56" y="709.43" width="343.42" height="151.45" fill="#6dbe3d">
      <title>pkg/models
Lines: 102
Score: 12.5/100</title>
    </rect>
    <text class="folder-label" x="993.56" y="729.43">pkg/models</text>
    <rect class="folder-rect" x="0.00" y="947.01" width="282.46" height="124.56" fill="#eaa40f">
      <title>pkg/languages
Lines: 69
Score: 37.5/100</title>
    </rect>
    <text class="folder-label" x="5.00" y="967.01">pkg/languages</text>
    <rect class="folder-rect" x="282.46" y="947.01" width="220.37" height="97.18" fill="#b9b71c">
      <title>pkg/languages/kotlin
Lines: 42
Score: 25.0/100</title>
    </rect>
    <text class="folder-label" x="287.46" y="967.01">pkg/languages/kotlin</text>
  </g>

</svg>