<?xml version="1.0" encoding="UTF-8"?>
<svg xmlns="http://www.w3.org/2000/svg" width="1400" height="900" viewBox="0 0 1400 900">
  <title>Kaizen Code Heat Map</title>
  <desc>Code quality heat map generated by Kaizen</desc>

  <defs>
    <style type="text/css">
      <![CDATA[
        .folder-rect {
          stroke: #1a1a1a;
          stroke-width: 2;
        }
        .folder-label {
          font-family: -apple-system, BlinkMacSystemFont, 'Segoe UI', Roboto, sans-serif;
          font-size: 12px;
          font-weight: 500;
          fill: white;
          text-shadow: 1px 1px 2px rgba(0,0,0,0.8);
          pointer-events: none;
        }
        .title-text {
          font-family: -apple-system, BlinkMacSystemFont, 'Segoe UI', Roboto, sans-serif;
          font-size: 24px;
          font-weight: bold;
          fill: #667eea;
        }
        .subtitle-text {
          font-family: -apple-system, BlinkMacSystemFont, 'Segoe UI', Roboto, sans-serif;
          font-size: 14px;
          fill: #999;
        }
      ]]>
    </style>
  </defs>

  <rect width="1400" height="900" fill="#1a1a1a"/>

  <!-- Header -->
  <text x="700" y="30" class="title-text" text-anchor="middle">Kaizen Code Heat Map</text>
  <text x="700" y="55" class="subtitle-text" text-anchor="middle">Metric: Hotspot Score (Churn + Complexity) | Files: 14 | Functions: 92</text>

  <!-- Legend -->
  <text x="700" y="840" class="subtitle-text" text-anchor="middle">Color Scale</text>
  <rect x="550.00" y="850" width="7.00" height="20" fill="#22c55e" stroke="none"/>
  <rect x="556.00" y="850" width="7.00" height="20" fill="#2ec358" stroke="none"/>
  <rect x="562.00" y="850" width="7.00" height="20" fill="#3ac253" stroke="none"/>
  <rect x="568.00" y="850" width="7.00" height="20" fill="#46c14e" stroke="none"/>
  <rect x="574.00" y="850" width="7.00" height="20" fill="#52c049" stroke="none"/>
  <rect x="580.00" y="850" width="7.00" height="20" fill="#5ebf43" stroke="none"/>
  <rect x="586.00" y="850" width="7.00" height="20" fill="#6abe3e" stroke="none"/>
  <rect x="592.00" y="850" width="7.00" height="20" fill="#76bd39" stroke="none"/>
  <rect x="598.00" y="850" width="7.00" height="20" fill="#82bc34" stroke="none"/>
  <rect x="604.00" y="850" width="7.00" height="20" fill="#8fbb2f" stroke="none"/>
  <rect x="610.00" y="850" width="7.00" height="20" fill="#9bba29" stroke="none"/>
  <rect x="616.00" y="850" width="7.00" height="20" fill="#a7b924" stroke="none"/>
  <rect x="622.00" y="850" width="7.00" height="20" fill="#b3b71f" stroke="none"/>
  <rect x="628.00" y="850" width="7.00" height="20" fill="#bfb61a" stroke="none"/>
  <rect x="634.00" y="850" width="7.00" height="20" fill="#cbb515" stroke="none"/>
  <rect x="640.00" y="850" width="7.00" height="20" fill="#d7b40f" stroke="none"/>
  <rect x="646.00" y="850" width="7.00" height="20" fill="#e3b30a" stroke="none"/>
  <rect x="652.00" y="850" width="7.00" height="20" fill="#eaaf09" stroke="none"/>
  <rect x="658.00" y="850" width="7.00" height="20" fill="#eaa90d" stroke="none"/>
  <rect x="664.00" y="850" width="7.00" height="20" fill="#eaa210" stroke="none"/>
  <rect x="670.00" y="850" width="7.00" height="20" fill="#eb9c14" stroke="none"/>
  <rect x="676.00" y="850" width="7.00" height="20" fill="#eb9517" stroke="none"/>
  <rect x="682.00" y="850" width="7.00" height="20" fill="#eb8f1b" stroke="none"/>
  <rect x="688.00" y="850" width="7.00" height="20" fill="#eb881e" stroke="none"/>
  <rect x="694.00" y="850" width="7.00" height="20" fill="#ec8222" stroke="none"/>
  <rect x="700.00" y="850" width="7.00" height="20" fill="#ec7b26" stroke="none"/>
  <rect x="706.00" y="850" width="7.00" height="20" fill="#ec7429" stroke="none"/>
  <rect x="712.00" y="850" width="7.00" height="20" fill="#ed6e2d" stroke="none"/>
  <rect x="718.00" y="850" width="7.00" height="20" fill="#ed6730" stroke="none"/>
  <rect x="724.00" y="850" width="7.00" height="20" fill="#ed6134" stroke="none"/>
  <rect x="730.00" y="850" width="7.00" height="20" fill="#ed5a37" stroke="none"/>
  <rect x="736.00" y="850" width="7.00" height="20" fill="#ee543b" stroke="none"/>
  <rect x="742.00" y="850" width="7.00" height="20" fill="#ee4d3e" stroke="none"/>
  <rect x="748.00" y="850" width="7.00" height="20" fill="#ee4742" stroke="none"/>
  <rect x="754.00" y="850" width="7.00" height="20" fill="#ee4343" stroke="none"/>
  <rect x="760.00" y="850" width="7.00" height="20" fill="#ed4141" stroke="none"/>
  <rect x="766.00" y="850" width="7.00" height="20" fill="#ec3f3f" stroke="none"/>
  <rect x="772.00" y="850" width="7.00" height="20" fill="#ea3d3d" stroke="none"/>
  <rect x="778.00" y="850" width="7.00" height="20" fill="#e93b3b" stroke="none"/>
  <rect x="784.00" y="850" width="7.00" height="20" fill="#e83a3a" stroke="none"/>
  <rect x="790.00" y="850" width="7.00" height="20" fill="#e73838" stroke="none"/>
  <rect x="796.00" y="850" width="7.00" height="20" fill="#e63636" stroke="none"/>
  <rect x="802.00" y="850" width="7.00" height="20" fill="#e53434" stroke="none"/>
  <rect x="808.00" y="850" width="7.00" height="20" fill="#e43232" stroke="none"/>
  <rect x="814.00" y="850" width="7.00" height="20" fill="#e23030" stroke="none"/>
  <rect x="820.00" y="850" width="7.00" height="20" fill="#e12f2f" stroke="none"/>
  <rect x="826.00" y="850" width="7.00" height="20" fill="#e02d2d" stroke="none"/>
  <rect x="832.00" y="850" width="7.00" height="20" fill="#df2b2b" stroke="none"/>
  <rect x="838.00" y="850" width="7.00" height="20" fill="#de2929" stroke="none"/>
  <rect x="844.00" y="850" width="7.00" height="20" fill="#dd2727" stroke="none"/>
  <text x="550" y="885" class="subtitle-text" text-anchor="start">Low (Good)</text>
  <text x="700" y="885" class="subtitle-text" text-anchor="middle">Medium</text>
  <text x="850" y="885" class="subtitle-text" text-anchor="end">High (Needs Attention)</text>
  <!-- Treemap (offset by header) -->
  <g transform="translate(0, 80)">
    <rect class="folder-rect" x="0.00" y="0.00" width="745.62" height="324.05" fill="#e33131">
      <title>pkg/visualization
Lines: 628
Score: 87.5/100</title>
    </rect>
    <text class="folder-label" x="5.00" y="20.00">pkg/visualization</text>
    <rect class="folder-rect" x="0.00" y="324.05" width="661.98" height="287.70" fill="#df2b2b">
      <title>pkg/analyzer
Lines: 495
Score: 93.8/100</title>
    </rect>
    <text class="folder-label" x="5.00" y="344.05">pkg/analyzer</text>
    <rect class="folder-rect" x="661.98" y="324.05" width="632.57" height="274.92" fill="#e63737">
      <title>pkg/languages/golang
Lines: 452
Score: 81.2/100</title>
    </rect>
    <text class="folder-label" x="666.98" y="344.05">pkg/languages/golang</text>
    <rect class="folder-rect" x="0.00" y="611.75" width="471.39" height="204.87" fill="#ea3c3c">
      <title>cmd/kaizen
Lines: 251
Score: 75.0/100</title>
    </rect>
    <text class="folder-label" x="5.00" y="631.75">cmd/kaizen</text>
    <rect class="folder-rect" x="471.39" y="611.75" width="393.60" height="171.06" fill="#dc2626">
      <title>pkg/churn
Lines: 175
Score: 100.0/100</title>
    </rect>
    <text class="folder-label" x="476.39" y="631.75">pkg/churn</text>
    <rect class="folder-rect" x="864.99" y="611.75" width="300.50" height="130.60" fill="#ed6731">
      <title>pkg/models
Lines: 102
Score: 56.2/100</title>
    </rect>
    <text class="folder-label" x="869.99" y="631.75">pkg/models</text>
    <rect class="folder-rect" x="0.00" y="816.61" width="247.15" height="107.41" fill="#ed4242">
      <title>pkg/languages
Lines: 69
Score: 68.8/100</title>
    </rect>
    <text class="folder-label" x="5.00" y="836.61">pkg/languages</text>
    <rect class="folder-rect" x="247.15" y="816.61" width="192.83" height="83.80" fill="#ee523c">
      <title>pkg/languages/kotlin
Lines: 42
Score: 62.5/100</title>
    </rect>
    <text class="folder-label" x="252.15" y="836.61">pkg/languages/kotlin</text>
  </g>

</svg>